<?xml version="1.0" encoding="UTF-8"?>
<!DOCTYPE svg PUBLIC "-//W3C//DTD SVG 1.1//EN" "http://www.w3.org/Graphics/SVG/1.1/DTD/svg11.dtd">
<svg xmlns="http://www.w3.org/2000/svg" version="1.1" width="32px" height="32px" style="shape-rendering:geometricPrecision; text-rendering:geometricPrecision; image-rendering:optimizeQuality; fill-rule:evenodd; clip-rule:evenodd" xmlns:xlink="http://www.w3.org/1999/xlink">
<g><path style="opacity:0.821" fill="#000000" d="M 1.5,1.5 C 3.83333,1.5 6.16667,1.5 8.5,1.5C 8.83333,3.5 9.16667,5.5 9.5,7.5C 15.8421,7.33379 22.1754,7.50046 28.5,8C 27.5,11.6667 26.5,15.3333 25.5,19C 20.5,19.3333 15.5,19.6667 10.5,20C 14.6346,21.4308 18.968,21.9308 23.5,21.5C 23.5,23.5 23.5,25.5 23.5,27.5C 22.1667,27.5 20.8333,27.5 19.5,27.5C 19.5,26.1667 19.5,24.8333 19.5,23.5C 17.5,23.5 15.5,23.5 13.5,23.5C 13.5,24.8333 13.5,26.1667 13.5,27.5C 12.1667,27.5 10.8333,27.5 9.5,27.5C 7.84712,20.2889 6.68046,12.9556 6,5.5C 4.30153,4.2593 2.80153,2.92597 1.5,1.5 Z M 9.5,9.5 C 14.5,9.5 19.5,9.5 24.5,9.5C 24.5339,12.1985 23.8672,14.6985 22.5,17C 18.5138,17.4988 14.5138,17.6655 10.5,17.5C 10.1667,14.8333 9.83333,12.1667 9.5,9.5 Z"/></g>
</svg>
